<svg xmlns="http://www.w3.org/2000/svg" viewBox="0 0 26.505 40"><g fill="#BCBEC0"><path d="M25.454 21.09l-8.9-18.87C16.004.85 14.734 0 13.254 0s-2.75.85-3.27 2.17l-8.95 18.97c-1.52 3.77-1.36 8.02.45 11.66 1.67 3.36 4.52 5.74 8.02 6.7 1.22.33 2.48.5 3.75.5s2.53-.17 3.75-.5c3.5-.96 6.35-3.34 8.02-6.71 1.81-3.63 1.97-7.88.43-11.7zm-2.22 10.82c-1.41 2.84-3.81 4.86-6.76 5.66-2.08.57-4.35.57-6.44 0-2.95-.8-5.35-2.82-6.76-5.66-1.55-3.13-1.69-6.78-.41-9.97l8.95-18.97c.36-.9 1.19-.97 1.44-.97s1.08.07 1.47 1.02l8.9 18.87c1.31 3.24 1.16 6.89-.39 10.02z"/><path d="M13.724 35.01c-.01.55-.45.99-1 .99h-.01c-3.45-.05-6.47-2.21-7.51-5.36-.86-2.6-.98-4.32-.46-6.56.12-.52.28-1.06.5-1.64.16-.46.37-.93.66-1.53l5.64-11.35c.24-.5.84-.7 1.34-.46.49.25.7.85.45 1.34l-.87 1.76-4.76 9.6c-.27.52-.44.93-.58 1.31-.19.52-.33.98-.43 1.42-.43 1.87-.33 3.25.41 5.48.78 2.34 3.02 3.94 5.61 3.99h.03c.55.01.99.46.98 1.01z"/></g></svg>